<svg width="124" height="123" viewBox="0 0 124 123" fill="none" xmlns="http://www.w3.org/2000/svg">
<g clip-path="url(#clip0)">
<path d="M39.9103 87.6212L32.0331 82.1651C31.7015 81.9354 31.5036 81.5584 31.5036 81.1564V75.3496C34.528 72.9882 36.4768 69.3228 36.4768 65.2112V61.4367C36.4768 54.3303 30.6631 48.549 23.5168 48.549C23.5165 48.549 23.5168 48.549 23.5165 48.549C20.0551 48.549 16.8004 49.8895 14.3525 52.3236C11.9048 54.7577 10.5568 57.9943 10.5568 61.4367V65.2112C10.5568 69.3228 12.5052 72.988 15.5297 75.3494V81.1564C15.5297 81.5584 15.3318 81.9357 15.0004 82.1653L11.3876 84.6672C10.5683 85.2346 10.3668 86.3551 10.9373 87.1696C11.2888 87.6713 11.8508 87.94 12.4223 87.94C12.7788 87.94 13.1392 87.8352 13.4537 87.6173L17.0668 85.115C18.3681 84.2135 19.1452 82.7334 19.1452 81.156V77.3422C20.5118 77.8307 21.9831 78.0987 23.5168 78.0987C25.0502 78.0987 26.5217 77.8307 27.8881 77.3425V81.1562C27.8881 82.7338 28.6654 84.2139 29.967 85.1154L37.8441 90.5715C41.2957 92.9625 43.3565 96.8872 43.3565 101.071V105.484C43.3565 105.926 43.042 106.306 42.6089 106.388C29.9402 108.774 17.0935 108.774 4.42443 106.388C3.9913 106.306 3.67675 105.926 3.67675 105.484V101.071C3.67675 97.6794 5.06774 94.3652 7.49276 91.9783C8.20212 91.2798 8.20814 90.1415 7.50578 89.4361C6.80365 88.7305 5.65899 88.7247 4.9494 89.4229C1.84323 92.4802 0.0615234 96.7256 0.0615234 101.071V105.483C0.0615234 107.651 1.61328 109.518 3.75195 109.92C10.3095 111.155 16.9132 111.772 23.5168 111.772C30.1205 111.772 36.7243 111.155 43.2818 109.92C45.42 109.518 46.9722 107.652 46.9722 105.483V101.071C46.972 95.7115 44.3322 90.6837 39.9103 87.6212ZM14.1725 65.2109V61.4365C14.1725 58.9545 15.1443 56.6208 16.9091 54.8656C18.6742 53.1105 21.0209 52.1441 23.5168 52.1441C28.6693 52.1441 32.8613 56.3126 32.8613 61.4365V65.2109C32.8613 70.3348 28.6693 74.5035 23.5168 74.5035C18.3642 74.5035 14.1725 70.3348 14.1725 65.2109Z" fill="black"/>
<path d="M119.196 89.7633C118.508 89.0445 117.363 89.0176 116.641 89.7022C115.918 90.3872 115.891 91.525 116.579 92.2439C118.871 94.635 120.133 97.7697 120.133 101.071V105.484C120.133 105.926 119.818 106.306 119.385 106.388C106.717 108.774 93.8699 108.774 81.2008 106.388C80.7677 106.306 80.4531 105.926 80.4531 105.484V101.071C80.4531 96.8872 82.5139 92.9625 85.9655 90.5715L93.8427 85.1154C95.1442 84.2139 95.9215 82.7338 95.9215 81.1562V77.3551C97.2916 77.8381 98.764 78.0987 100.293 78.0987C101.827 78.0987 103.298 77.8307 104.664 77.3425V81.1562C104.664 82.7336 105.442 84.2137 106.743 85.1154L110.707 87.8609C111.022 88.079 111.382 88.1835 111.738 88.1835C112.31 88.1835 112.872 87.9148 113.223 87.4131C113.794 86.5984 113.592 85.4778 112.773 84.9105L108.809 82.1651C108.478 81.9354 108.28 81.5582 108.28 81.1562V75.4944C108.28 75.4472 108.276 75.4009 108.273 75.3547C111.302 72.9935 113.253 69.3257 113.253 65.2109V61.4365C113.253 54.3301 107.439 48.5485 100.293 48.5485C93.78 48.5485 88.2541 53.3895 87.4389 59.8092C87.3138 60.7943 88.0157 61.6937 89.0061 61.8178C89.9977 61.9429 90.9011 61.2445 91.0262 60.2596C91.6136 55.6328 95.5974 52.1438 100.293 52.1438C105.446 52.1438 109.637 56.3126 109.637 61.4365V65.2109C109.637 70.3348 105.445 74.5035 100.293 74.5035C95.9093 74.5035 92.1648 71.539 91.1874 67.2945C90.9645 66.3264 89.9951 65.7212 89.0218 65.9436C88.0487 66.1654 87.4404 67.1294 87.6633 68.0973C88.352 71.0872 90.031 73.6176 92.3119 75.3861C92.3097 75.4223 92.3063 75.458 92.3063 75.4947V81.1564C92.3063 81.5584 92.1084 81.9354 91.7768 82.1653L83.8996 87.6214C79.4777 90.684 76.8379 95.7117 76.8379 101.071V105.484C76.8379 107.652 78.3899 109.518 80.5283 109.92C87.0858 111.155 93.6896 111.773 100.293 111.773C106.897 111.773 113.501 111.155 120.058 109.92C122.197 109.518 123.749 107.652 123.749 105.484V101.071C123.749 96.8417 122.132 92.8258 119.196 89.7633Z" fill="black"/>
<path d="M68.7844 97.0054C68.2204 96.1863 67.0955 95.9768 66.2714 96.538C65.4478 97.0991 65.2374 98.2177 65.8016 99.037L66.5129 100.07H57.2973L58.0086 99.037C58.5728 98.218 58.3624 97.0991 57.5388 96.538C56.715 95.9771 55.5901 96.1863 55.0258 97.0054L52.3769 100.852C51.9551 101.464 51.9551 102.271 52.3769 102.883L55.0258 106.73C55.3761 107.238 55.9425 107.512 56.5188 107.512C56.8707 107.512 57.2264 107.41 57.5386 107.197C58.3622 106.636 58.5726 105.517 58.0084 104.698L57.2971 103.665H66.5127L65.8014 104.698C65.2371 105.517 65.4475 106.636 66.2711 107.197C66.5835 107.41 66.939 107.512 67.291 107.512C67.8675 107.512 68.4337 107.238 68.7839 106.73L71.4328 102.883C71.8546 102.271 71.8546 101.464 71.4328 100.852L68.7844 97.0054Z" fill="url(#paint0_linear)"/>
<path d="M7.96968 40.2204C8.3199 40.729 8.88632 41.0025 9.46263 41.0025C9.81454 41.0025 10.1703 40.9006 10.4824 40.6878C11.306 40.1267 11.5165 39.008 10.9522 38.1888L10.2409 37.1557H113.569L112.858 38.1888C112.293 39.0078 112.504 40.1267 113.327 40.6878C113.64 40.9004 113.995 41.0025 114.347 41.0025C114.924 41.0025 115.49 40.729 115.84 40.2204L118.489 36.3741C118.911 35.7619 118.911 34.9548 118.489 34.3424L115.84 30.4961C115.276 29.677 114.151 29.4676 113.327 30.0287C112.504 30.5898 112.293 31.7084 112.857 32.5277L113.569 33.5605H10.2412L10.9524 32.5277C11.5167 31.7087 11.3063 30.5898 10.4827 30.0287C9.65859 29.4678 8.53394 29.677 7.96968 30.4961L5.32075 34.3424C4.89894 34.9546 4.89894 35.7616 5.32075 36.3741L7.96968 40.2204Z" fill="url(#paint1_linear)"/>
<path d="M46.4696 19.1802C47.4682 19.1802 48.2773 18.3753 48.2773 17.3825V16.2933C48.2773 15.4827 48.9404 14.8233 49.7556 14.8233C50.5707 14.8233 51.2338 15.4827 51.2338 16.2933V17.5122C51.2338 17.8789 51.0972 18.2305 50.8484 18.5019L45.4831 24.3635C45.0015 24.8899 44.8771 25.6492 45.1666 26.3005C45.4558 26.9515 46.1042 27.3714 46.8198 27.3714H53.0413C54.0399 27.3714 54.8491 26.5665 54.8491 25.5737C54.8491 24.5809 54.0399 23.776 53.0413 23.776H50.9099L53.5219 20.9223C54.3778 19.9875 54.8491 18.7765 54.8491 17.5124V16.2936C54.8491 13.5004 52.5641 11.2281 49.7553 11.2281C46.9466 11.2281 44.6616 13.5004 44.6616 16.2936V17.3827C44.6619 18.3755 45.471 19.1802 46.4696 19.1802Z" fill="black"/>
<path d="M64.17 27.3714C65.1686 27.3714 65.9778 26.5665 65.9778 25.5737V17.5992L67.4902 19.2168C67.847 19.5984 68.3507 19.8072 68.8774 19.7895C69.4014 19.7712 69.8916 19.5275 70.2209 19.1217L71.037 18.1159V25.5737C71.037 26.5665 71.8462 27.3714 72.8448 27.3714C73.8433 27.3714 74.6525 26.5665 74.6525 25.5737V13.0256C74.6525 12.2636 74.1692 11.5843 73.4469 11.3305C72.7242 11.0766 71.9194 11.3034 71.4379 11.8966L68.7173 15.2492L65.4938 11.8017C64.9876 11.2607 64.2009 11.0819 63.5086 11.3528C62.8171 11.6231 62.3623 12.2869 62.3623 13.0258V25.574C62.3623 26.5665 63.1714 27.3714 64.17 27.3714Z" fill="black"/>
<path d="M79.4166 27.3714H80.2489C81.2475 27.3714 82.0566 26.5666 82.0566 25.5738C82.0566 24.5809 81.2475 23.7761 80.2489 23.7761H79.4166C78.418 23.7761 77.6089 24.5809 77.6089 25.5738C77.6089 26.5666 78.4183 27.3714 79.4166 27.3714Z" fill="black"/>
</g>
<defs>
<linearGradient id="paint0_linear" x1="61.8324" y1="96.2232" x2="61.8324" y2="107.34" gradientUnits="userSpaceOnUse">
<stop stop-color="#193D9F"/>
<stop offset="0.473958" stop-color="#80785B"/>
<stop offset="1" stop-color="#F2B90F"/>
</linearGradient>
<linearGradient id="paint1_linear" x1="61.486" y1="33.5" x2="61.486" y2="37.5" gradientUnits="userSpaceOnUse">
<stop stop-color="#193D9F"/>
<stop offset="0.473958" stop-color="#80785B"/>
<stop offset="1" stop-color="#F2B90F"/>
</linearGradient>
<clipPath id="clip0">
<rect width="123.687" height="123" fill="white" transform="translate(0.0615234)"/>
</clipPath>
</defs>
</svg>
