<svg width="115" height="115" viewBox="0 0 115 115" fill="none" xmlns="http://www.w3.org/2000/svg">
<path d="M68.2632 91.1734C68.1488 90.0833 67.7088 89.0529 67.0005 88.2164C66.2922 87.3799 65.3484 86.7761 64.2921 86.4836C64.6159 85.6932 64.7453 84.8367 64.6694 83.9859C64.6449 83.7673 64.6028 83.5509 64.5436 83.339C65.322 82.7964 65.9521 82.0675 66.3764 81.2187C66.8184 80.2181 66.9502 79.108 66.7548 78.0318C66.5594 76.9556 66.0458 75.9626 65.2804 75.1812C65.9433 74.6482 66.4776 73.9726 66.8436 73.2047C67.398 71.9463 67.462 70.5261 67.0232 69.223C66.5844 67.9198 65.6744 66.8277 64.4718 66.1609L52.9179 59.4945C54.0112 58.8624 54.9166 57.9507 55.5413 56.8531L56.4397 55.3078C56.6828 54.8964 56.7539 54.4056 56.6374 53.9422C56.5039 53.4835 56.2023 53.0921 55.7929 52.8461L39.7108 43.5562C37.6408 42.3724 35.1885 42.0497 32.8827 42.6578L31.2655 43.089C30.5839 43.275 29.8721 43.323 29.1717 43.2305C28.4714 43.1379 27.7965 42.9066 27.1866 42.55L18.8671 37.7523C18.4518 37.5172 17.9605 37.4551 17.4998 37.5796C17.039 37.704 16.6458 38.0049 16.4054 38.4172L3.82724 60.1953C3.59824 60.6119 3.5341 61.0993 3.64755 61.5609C3.77607 62.0221 4.07894 62.4151 4.49208 62.657L12.8116 67.4547C13.4236 67.8074 13.9595 68.2781 14.3882 68.8395C14.8169 69.4009 15.13 70.0417 15.3093 70.725L15.7585 72.3601C16.1861 73.8427 16.9766 75.1952 18.0585 76.2953C17.1601 76.9304 16.086 77.2696 14.9858 77.2656H5.39052C4.91396 77.2656 4.45692 77.4549 4.11994 77.7919C3.78296 78.1289 3.59365 78.5859 3.59365 79.0625V104.219C3.59365 104.695 3.78296 105.152 4.11994 105.489C4.45692 105.826 4.91396 106.016 5.39052 106.016H14.9858C15.6941 106.012 16.3961 106.15 17.0503 106.421C17.7045 106.693 18.2978 107.093 18.7952 107.597L19.9811 108.783C20.8167 109.617 21.8086 110.278 22.9002 110.728C23.9917 111.179 25.1614 111.409 26.3421 111.406H52.1093C53.5389 111.406 54.9101 110.838 55.921 109.827C56.9319 108.816 57.4999 107.445 57.4999 106.016C57.5008 105.404 57.3975 104.796 57.1944 104.219H59.2968C60.7264 104.219 62.0976 103.651 63.1085 102.64C64.1194 101.629 64.6874 100.258 64.6874 98.8281C64.6925 98.1509 64.5643 97.4793 64.31 96.8515C65.2087 96.6073 66.027 96.13 66.6819 95.4679C67.2467 94.9137 67.6815 94.2409 67.955 93.4983C68.2284 92.7557 68.3337 91.9616 68.2632 91.1734ZM14.6085 64.3281L7.85224 60.4289L18.6335 41.7773L25.3897 45.6765C27.4521 46.8636 29.9003 47.1866 32.1999 46.575L33.8171 46.1258C35.2029 45.7665 36.6744 45.9666 37.914 46.6828L52.4327 55.0562C51.9555 55.8798 51.1723 56.4816 50.2536 56.7307C49.3349 56.9797 48.355 56.8558 47.5272 56.3859V56.3679L42.8733 53.6906C42.4651 53.4533 41.9798 53.3862 41.5225 53.5039C41.0652 53.6216 40.6726 53.9146 40.4296 54.3195C39.9563 55.1489 39.2708 55.8374 38.4434 56.3142C37.616 56.791 36.6767 57.039 35.7218 57.0328C34.7846 57.0281 33.8637 56.7871 33.0444 56.332L31.4991 55.4336C31.296 55.3098 31.0701 55.2277 30.8349 55.1923C30.5996 55.1569 30.3597 55.1688 30.1291 55.2273C29.8985 55.2857 29.6819 55.3897 29.4919 55.5329C29.302 55.6762 29.1426 55.856 29.023 56.0616C28.9034 56.2673 28.8261 56.4948 28.7956 56.7307C28.765 56.9667 28.7819 57.2063 28.8451 57.4357C28.9084 57.665 29.0168 57.8794 29.1639 58.0663C29.3111 58.2532 29.4941 58.4089 29.7022 58.5242L31.2475 59.4406C33.0447 60.4672 35.1405 60.8436 37.1825 60.5065C39.2245 60.1694 41.0882 59.1395 42.46 57.5898L45.7304 59.4945L62.6929 69.2875C63.1109 69.5094 63.4322 69.878 63.5947 70.3226C63.7573 70.7671 63.7497 71.256 63.5733 71.6953C63.4656 71.9354 63.3043 72.1477 63.1018 72.3159C62.8994 72.4841 62.6612 72.6037 62.4054 72.6656C61.95 72.7859 61.4656 72.7213 61.0577 72.4859L45.4968 63.5015C45.2922 63.3715 45.0635 63.2842 44.8244 63.2449C44.5853 63.2056 44.3407 63.215 44.1053 63.2727C43.8699 63.3303 43.6486 63.435 43.4547 63.5804C43.2608 63.7258 43.0984 63.9089 42.9771 64.1187C42.8558 64.3285 42.7782 64.5607 42.749 64.8013C42.7198 65.0418 42.7395 65.2858 42.8071 65.5186C42.8746 65.7513 42.9885 65.968 43.1419 66.1556C43.2954 66.3432 43.4852 66.4978 43.6999 66.6101L59.2429 75.5945C59.2476 75.5945 59.2522 75.5964 59.2556 75.5998C59.2589 75.6031 59.2608 75.6077 59.2608 75.6125L62.2077 77.2836C62.6228 77.5046 62.9441 77.8682 63.1124 78.3073C63.2808 78.7464 63.285 79.2315 63.1241 79.6734C63.008 79.9196 62.8357 80.135 62.621 80.3023C61.622 79.5009 60.3798 79.0637 59.0991 79.0625H57.8593C57.7448 78.9249 57.6118 78.8039 57.4639 78.7031L46.0538 72.1265C45.693 71.9805 45.3104 71.8955 44.9218 71.875H26.3421C24.2891 71.8817 22.3017 72.5992 20.7179 73.9054C20.0049 73.2224 19.4896 72.3595 19.2265 71.4078L18.7952 69.7906C18.1713 67.4905 16.6673 65.5284 14.6085 64.3281ZM50.8874 79.0625H45.7483C46.1868 78.3012 46.4851 77.4674 46.6288 76.6008L50.8874 79.0625ZM64.1304 92.9164C63.9712 93.0846 63.7788 93.2178 63.5653 93.3075C63.3518 93.3972 63.122 93.4415 62.8905 93.4375H41.328C40.8515 93.4375 40.3944 93.6268 40.0574 93.9638C39.7205 94.3007 39.5311 94.7578 39.5311 95.2343C39.5311 95.7109 39.7205 96.168 40.0574 96.5049C40.3944 96.8419 40.8515 97.0312 41.328 97.0312H59.2968C59.7733 97.0312 60.2304 97.2205 60.5673 97.5575C60.9043 97.8945 61.0936 98.3515 61.0936 98.8281C61.0957 99.068 61.0472 99.3056 60.9512 99.5254C60.8552 99.7453 60.714 99.9424 60.5366 100.104C60.3774 100.272 60.185 100.405 59.9715 100.495C59.7581 100.585 59.5283 100.629 59.2968 100.625H41.328C40.8515 100.625 40.3944 100.814 40.0574 101.151C39.7205 101.488 39.5311 101.945 39.5311 102.422C39.5311 102.898 39.7205 103.355 40.0574 103.692C40.3944 104.029 40.8515 104.219 41.328 104.219H52.1093C52.5858 104.219 53.0429 104.408 53.3798 104.745C53.7168 105.082 53.9061 105.539 53.9061 106.016C53.9082 106.255 53.8597 106.493 53.7637 106.713C53.6678 106.933 53.5265 107.13 53.3491 107.291C53.1899 107.46 52.9975 107.593 52.784 107.682C52.5706 107.772 52.3408 107.816 52.1093 107.812H26.3421C25.6338 107.816 24.9318 107.678 24.2776 107.407C23.6234 107.135 23.0302 106.735 22.5327 106.231L21.3468 105.045C20.5112 104.211 19.5193 103.55 18.4277 103.1C17.3362 102.649 16.1666 102.419 14.9858 102.422H7.18739V80.8594H14.9858C16.1666 80.862 17.3362 80.6317 18.4277 80.1815C19.5193 79.7313 20.5112 79.0702 21.3468 78.2359L22.5327 77.05C23.0302 76.5457 23.6234 76.1461 24.2776 75.8745C24.9318 75.6029 25.6338 75.465 26.3421 75.4687H43.1249C43.122 76.421 42.7425 77.3334 42.0692 78.0067C41.3958 78.6801 40.4834 79.0596 39.5311 79.0625H34.1405C33.664 79.0625 33.2069 79.2518 32.8699 79.5888C32.533 79.9257 32.3436 80.3828 32.3436 80.8594C32.3436 81.3359 32.533 81.793 32.8699 82.1299C33.2069 82.4669 33.664 82.6562 34.1405 82.6562H59.0991C59.573 82.6418 60.0361 82.7995 60.4028 83.1001C60.7694 83.4007 61.0148 83.8239 61.0936 84.2914C61.1152 84.5575 61.0763 84.825 60.9799 85.074C60.8834 85.3229 60.7319 85.5468 60.5366 85.7289C60.3774 85.8971 60.185 86.0303 59.9715 86.12C59.7581 86.2097 59.5283 86.254 59.2968 86.25H41.328C40.8515 86.25 40.3944 86.4393 40.0574 86.7763C39.7205 87.1132 39.5311 87.5703 39.5311 88.0469C39.5311 88.5234 39.7205 88.9805 40.0574 89.3174C40.3944 89.6544 40.8515 89.8437 41.328 89.8437H62.6929C63.1668 89.8293 63.6299 89.987 63.9965 90.2876C64.3632 90.5882 64.6086 91.0114 64.6874 91.4789C64.709 91.745 64.6701 92.0125 64.5736 92.2615C64.4771 92.5104 64.3256 92.7343 64.1304 92.9164Z" fill="black"/>
<path d="M73.6719 53.9063C73.6719 50.5389 68.9173 43.4844 67.9632 42.1044C67.789 41.8778 67.5651 41.6942 67.3087 41.5679C67.0522 41.4416 66.7702 41.3759 66.4844 41.3759C66.1985 41.3759 65.9165 41.4416 65.6601 41.5679C65.4037 41.6942 65.1797 41.8778 65.0055 42.1044C64.0514 43.4844 59.2969 50.5389 59.2969 53.9063C59.2969 55.8125 60.0541 57.6407 61.402 58.9886C62.75 60.3365 64.5781 61.0938 66.4844 61.0938C68.3906 61.0938 70.2188 60.3365 71.5667 58.9886C72.9146 57.6407 73.6719 55.8125 73.6719 53.9063ZM62.8906 53.9063C62.8906 52.7167 64.5689 49.4608 66.4844 46.3971C68.4016 49.4518 70.0781 52.7149 70.0781 53.9063C70.0781 54.8594 69.6995 55.7735 69.0255 56.4474C68.3516 57.1214 67.4375 57.5 66.4844 57.5C65.5313 57.5 64.6172 57.1214 63.9432 56.4474C63.2692 55.7735 62.8906 54.8594 62.8906 53.9063Z" fill="url(#paint0_linear)"/>
<path d="M80.8594 68.2812C80.8594 65.9848 78.1245 61.7747 76.9476 60.0731C76.7734 59.8465 76.5494 59.6629 76.293 59.5366C76.0366 59.4102 75.7546 59.3445 75.4688 59.3445C75.1829 59.3445 74.9009 59.4102 74.6445 59.5366C74.3881 59.6629 74.1641 59.8465 73.9899 60.0731C72.813 61.7747 70.0781 65.9848 70.0781 68.2812C70.0781 69.7109 70.6461 71.082 71.657 72.093C72.6679 73.1039 74.0391 73.6718 75.4688 73.6718C76.8984 73.6718 78.2696 73.1039 79.2805 72.093C80.2914 71.082 80.8594 69.7109 80.8594 68.2812ZM75.4688 70.0781C74.9922 70.0781 74.5351 69.8888 74.1982 69.5518C73.8612 69.2148 73.6719 68.7578 73.6719 68.2812C74.0615 66.9077 74.6681 65.6054 75.4688 64.4233C76.2693 65.6054 76.8759 66.9078 77.2656 68.2812C77.2656 68.7578 77.0763 69.2148 76.7393 69.5518C76.4024 69.8888 75.9453 70.0781 75.4688 70.0781Z" fill="url(#paint1_linear)"/>
<path d="M109.61 97.0312H106.016V88.0469C106.01 86.9353 105.662 85.8525 105.019 84.9459C104.376 84.0392 103.469 83.3527 102.422 82.9797V25.1562C102.422 19.4375 100.15 13.953 96.1066 9.90926C92.0628 5.86551 86.5783 3.59375 80.8596 3.59375C75.1408 3.59375 69.6563 5.86551 65.6126 9.90926C61.5688 13.953 59.2971 19.4375 59.2971 25.1562V29.0734C58.1087 29.5047 57.1096 30.3398 56.4746 31.433C55.8395 32.5261 55.6089 33.8077 55.823 35.0536C56.0371 36.2996 56.6822 37.4307 57.6457 38.2491C58.6092 39.0676 59.8298 39.5214 61.0939 39.5312H71.8752C73.1394 39.5214 74.3599 39.0676 75.3234 38.2491C76.2869 37.4307 76.9321 36.2996 77.1461 35.0536C77.3602 33.8077 77.1296 32.5261 76.4945 31.433C75.8595 30.3398 74.8605 29.5047 73.6721 29.0734V25.1562C73.6721 23.25 74.4293 21.4218 75.7772 20.0739C77.1252 18.726 78.9533 17.9688 80.8596 17.9688C82.7658 17.9688 84.594 18.726 85.9419 20.0739C87.2898 21.4218 88.0471 23.25 88.0471 25.1562V82.9797C86.9999 83.3527 86.0932 84.0392 85.4501 84.9459C84.8071 85.8525 84.459 86.9353 84.4533 88.0469V97.0312H80.8596C80.383 97.0312 79.926 97.2206 79.589 97.5575C79.252 97.8945 79.0627 98.3516 79.0627 98.8281V109.609C79.0627 110.086 79.252 110.543 79.589 110.88C79.926 111.217 80.383 111.406 80.8596 111.406H109.61C110.086 111.406 110.543 111.217 110.88 110.88C111.217 110.543 111.406 110.086 111.406 109.609V98.8281C111.406 98.3516 111.217 97.8945 110.88 97.5575C110.543 97.2206 110.086 97.0312 109.61 97.0312ZM71.8752 35.9375H61.0939C60.6174 35.9375 60.1603 35.7482 59.8233 35.4112C59.4864 35.0742 59.2971 34.6172 59.2971 34.1406C59.2971 33.6641 59.4864 33.207 59.8233 32.87C60.1603 32.5331 60.6174 32.3438 61.0939 32.3438H71.8752C72.3517 32.3438 72.8088 32.5331 73.1458 32.87C73.4828 33.207 73.6721 33.6641 73.6721 34.1406C73.6721 34.6172 73.4828 35.0742 73.1458 35.4112C72.8088 35.7482 72.3517 35.9375 71.8752 35.9375ZM80.8596 14.375C78.0002 14.375 75.2579 15.5109 73.2361 17.5328C71.2142 19.5546 70.0783 22.2969 70.0783 25.1562V28.75H62.8908V25.1562C62.8908 20.3906 64.7839 15.8202 68.1537 12.4504C71.5235 9.08063 76.094 7.1875 80.8596 7.1875C85.6252 7.1875 90.1956 9.08063 93.5654 12.4504C96.9352 15.8202 98.8283 20.3906 98.8283 25.1562V82.6562H91.6408V25.1562C91.6408 22.2969 90.5049 19.5546 88.4831 17.5328C86.4612 15.5109 83.7189 14.375 80.8596 14.375ZM88.0471 88.0469C88.0471 87.5703 88.2364 87.1133 88.5734 86.7763C88.9103 86.4393 89.3674 86.25 89.8439 86.25H100.625C101.102 86.25 101.559 86.4393 101.896 86.7763C102.233 87.1133 102.422 87.5703 102.422 88.0469V97.0312H88.0471V88.0469ZM107.813 107.812H104.219V104.219C104.219 103.742 104.03 103.285 103.693 102.948C103.356 102.611 102.899 102.422 102.422 102.422C101.946 102.422 101.488 102.611 101.151 102.948C100.815 103.285 100.625 103.742 100.625 104.219V107.812H97.0314V104.219C97.0314 103.742 96.8421 103.285 96.5052 102.948C96.1682 102.611 95.7111 102.422 95.2346 102.422C94.758 102.422 94.301 102.611 93.964 102.948C93.627 103.285 93.4377 103.742 93.4377 104.219V107.812H89.8439V104.219C89.8439 103.742 89.6546 103.285 89.3176 102.948C88.9807 102.611 88.5236 102.422 88.0471 102.422C87.5705 102.422 87.1135 102.611 86.7765 102.948C86.4395 103.285 86.2502 103.742 86.2502 104.219V107.812H82.6564V100.625H107.813V107.812Z" fill="black"/>
<defs>
<linearGradient id="paint0_linear" x1="66.4315" y1="41.3757" x2="66.4315" y2="60.7929" gradientUnits="userSpaceOnUse">
<stop stop-color="#193D9F"/>
<stop offset="0.473958" stop-color="#80785B"/>
<stop offset="1" stop-color="#F2B90F"/>
</linearGradient>
<linearGradient id="paint1_linear" x1="75.4291" y1="59.3444" x2="75.4291" y2="73.4533" gradientUnits="userSpaceOnUse">
<stop stop-color="#193D9F"/>
<stop offset="0.473958" stop-color="#80785B"/>
<stop offset="1" stop-color="#F2B90F"/>
</linearGradient>
</defs>
</svg>
