<svg width="117" height="117" viewBox="0 0 117 117" fill="none" xmlns="http://www.w3.org/2000/svg">
<path d="M43.6456 56.9953C43.8585 55.8404 44.5576 54.8301 45.5633 54.2234L47.0062 53.3531C47.8131 52.8665 48.0726 51.8178 47.5858 51.0109C47.0992 50.204 46.0508 49.9447 45.2437 50.4313L43.8007 51.3016C41.9595 52.4122 40.6799 54.2619 40.2898 56.3763L38.5684 65.7081C37.8148 69.7919 40.3874 73.7496 44.4254 74.7185C45.0364 74.8652 45.6488 74.9357 46.253 74.9355C49.4669 74.9355 52.438 72.9409 53.5836 69.8017L55.399 64.8264L57.9636 64.1344L66.1912 70.6663C66.5049 70.9154 66.8791 71.0362 67.2508 71.0362C67.7533 71.0362 68.2513 70.8151 68.5882 70.3908C69.1739 69.6529 69.0506 68.5796 68.3127 67.9936L62.0592 63.0288L63.8404 62.5482C64.7501 62.3027 65.2885 61.3662 65.0431 60.4565C64.7976 59.5467 63.8615 59.0083 62.9514 59.2538L53.6551 61.7622C53.1193 61.9069 52.6871 62.3032 52.4967 62.8245L50.378 68.6315C49.612 70.7314 47.3954 71.9218 45.2216 71.3997C42.9481 70.8542 41.4995 68.6258 41.924 66.3266L43.6456 56.9953Z" fill="black"/>
<path d="M80.1238 42.9296C79.816 43.8204 80.2889 44.7916 81.1795 45.0991C82.0096 45.3857 82.7883 45.7884 83.4942 46.2959L88.4833 49.8844C89.002 50.2577 89.6144 50.4484 90.232 50.4484C90.6787 50.4484 91.1287 50.3485 91.548 50.1454L96.7773 47.5834C97.6236 47.1687 97.9734 46.1469 97.559 45.3007C97.1443 44.4547 96.1226 44.1048 95.2762 44.519L90.2745 46.9695L85.4869 43.5258C84.5119 42.8245 83.4375 42.2685 82.2937 41.8736C81.4011 41.5663 80.4311 42.039 80.1238 42.9296Z" fill="black"/>
<path d="M102.558 44.559C102.81 44.559 103.066 44.5031 103.307 44.3848L115.75 38.2889C116.596 37.8745 116.946 36.8524 116.532 36.0062C116.117 35.1601 115.095 34.81 114.249 35.2245L101.806 41.3204C100.96 41.7348 100.61 42.7569 101.024 43.6032C101.321 44.2078 101.927 44.559 102.558 44.559Z" fill="black"/>
<path d="M1.21074 37.5863L25.1854 50.1254C25.2006 50.1333 25.2163 50.1413 25.232 50.1488C25.6474 50.3501 26.0944 50.4493 26.5396 50.4493C27.1567 50.4493 27.77 50.2584 28.2898 49.8847L33.2785 46.2964C34.0403 45.7486 34.8793 45.325 35.7726 45.0375C36.6696 44.7486 37.1625 43.7875 36.8741 42.8905C36.5852 41.9935 35.6239 41.5008 34.7271 41.7892C33.4946 42.186 32.337 42.7704 31.286 43.5261L26.5052 46.9649L2.79197 34.5626C1.95779 34.126 0.926157 34.4486 0.489618 35.2837C0.052851 36.1186 0.375649 37.1495 1.21074 37.5863Z" fill="black"/>
<path d="M116.492 71.1386C116.036 70.314 114.998 70.0153 114.173 70.4719L105.532 75.2538C105.118 75.4828 104.818 75.8737 104.703 76.3327C104.032 79.0191 102.467 81.4463 100.298 83.1672L93.3046 88.7153C92.8417 87.7712 92.1706 86.9343 91.3217 86.2605L74.0212 72.5256C73.2834 71.94 72.2099 72.0631 71.6242 72.8008C71.0384 73.5388 71.1617 74.612 71.8997 75.198L89.2002 88.933C89.9941 89.5633 90.492 90.4653 90.6021 91.4731C90.7122 92.4808 90.4208 93.469 89.7821 94.2558C89.1469 95.0379 88.2454 95.525 87.2436 95.6278C86.242 95.7304 85.2602 95.4367 84.4797 94.8002L72.2065 84.7964C71.4747 84.2025 70.4005 84.314 69.8064 85.0453C69.2124 85.7767 69.3239 86.8511 70.0552 87.4452L80.0576 95.5975C81.3843 96.9274 81.5508 99.0355 80.3914 100.568C79.7637 101.398 78.8495 101.923 77.8169 102.048C76.7846 102.174 75.771 101.881 74.9632 101.225L65.0467 93.1717C64.3149 92.5777 63.2408 92.6892 62.6468 93.4203C62.0526 94.1517 62.1641 95.2263 62.8954 95.8202L70.6112 102.087C71.222 102.698 71.6037 103.493 71.6956 104.364C71.8018 105.374 71.5079 106.365 70.8678 107.153C69.5486 108.776 67.1553 109.024 65.5322 107.706L57.9973 101.587C57.2648 100.993 56.1911 101.105 55.5973 101.837C55.0036 102.568 55.1153 103.643 55.8469 104.237L59.937 107.557C61.3552 108.718 61.6027 110.769 60.498 112.234C59.9498 112.961 59.1511 113.429 58.2489 113.554C57.3471 113.678 56.4513 113.444 55.7263 112.892L50.1605 108.659C52.0748 106.041 51.6173 102.341 49.0624 100.267C48.0008 99.4051 46.7119 98.9336 45.3674 98.8981C45.7034 96.5878 44.8966 94.2099 43.015 92.6826C41.9354 91.8063 40.6219 91.3102 39.2352 91.2372C39.4554 90.4755 39.5296 89.6712 39.4452 88.8591C39.273 87.203 38.4661 85.7127 37.1603 84.6531C35.8657 83.6024 34.2388 83.1194 32.5816 83.2935C31.7642 83.3792 30.988 83.6201 30.2849 83.9968C29.9066 82.7175 29.1523 81.5343 28.0378 80.6301C26.6199 79.479 24.8381 78.9501 23.0227 79.1417C21.2065 79.3328 19.5743 80.2204 18.4269 81.6413L16.9854 83.4263C15.1202 81.985 13.6552 80.0771 12.7464 77.901L11.9898 76.0886C11.8659 75.7915 11.6604 75.5358 11.3972 75.3504L2.9838 69.4314C2.21286 68.889 1.14892 69.0744 0.606829 69.8449C0.0645106 70.6156 0.249909 71.6798 1.02039 72.2221L9.03097 77.8578L9.59785 79.2154C10.7278 81.9211 12.5453 84.2946 14.8579 86.0931C13.8923 87.4844 13.4821 89.1555 13.7035 90.8541C13.9469 92.7219 14.9178 94.3641 16.4371 95.4774C17.6526 96.3683 19.0664 96.7998 20.4695 96.7998C20.782 96.7998 21.0937 96.7759 21.4028 96.7334C21.4117 96.9144 21.4267 97.0957 21.4517 97.2766C21.6858 98.9752 22.6224 100.518 24.0209 101.51C25.1083 102.281 26.3676 102.655 27.6181 102.655C27.9923 102.655 28.3656 102.619 28.7332 102.553C28.7428 102.719 28.756 102.886 28.7776 103.051C29.0155 104.873 29.9466 106.462 31.3989 107.525C32.5609 108.375 33.9198 108.786 35.2854 108.786C35.5049 108.786 35.7242 108.773 35.9433 108.752C35.9374 109.061 35.9544 109.372 35.9954 109.685C36.2158 111.366 37.0916 112.843 38.4615 113.844C39.5523 114.64 40.8201 115.026 42.0785 115.026C43.8674 115.026 45.637 114.246 46.8465 112.755L48.0156 111.315L53.661 115.608C54.8589 116.519 56.2905 116.999 57.7696 116.999C58.0835 116.999 58.3997 116.978 58.7159 116.934C60.5235 116.684 62.1238 115.745 63.2228 114.288C63.9494 113.324 64.3823 112.234 64.5379 111.122C65.5738 111.676 66.7253 111.967 67.9103 111.967C68.1612 111.967 68.4137 111.954 68.6667 111.928C70.5809 111.73 72.3034 110.798 73.5168 109.304C74.493 108.102 75.0441 106.652 75.1197 105.135C75.8321 105.368 76.5797 105.489 77.3417 105.489C77.6352 105.489 77.9311 105.472 78.2278 105.436C80.1873 105.198 81.9223 104.201 83.1134 102.627C84.0129 101.437 84.4908 100.066 84.5711 98.6874C85.2993 98.9327 86.0655 99.0605 86.8464 99.0605C87.0941 99.0605 87.3432 99.0478 87.5928 99.0223C89.5027 98.8262 91.2211 97.8974 92.4315 96.4069C93.3417 95.2861 93.8815 93.951 94.0089 92.5463L102.42 85.8404C104.976 83.8119 106.871 81.0114 107.813 77.8921L115.827 73.4573C116.65 73.0012 116.948 71.963 116.492 71.1386ZM18.4535 92.726C17.6937 92.1692 17.2081 91.3482 17.0866 90.4141C16.9649 89.4801 17.224 88.562 17.8157 87.829L21.0809 83.7857C21.6547 83.0751 22.4709 82.6313 23.3792 82.5357C23.5007 82.523 23.6215 82.5166 23.7423 82.5166C24.5225 82.5166 25.2739 82.7825 25.897 83.288C26.6047 83.8624 27.0465 84.6782 27.1409 85.5849C27.2187 86.3333 27.0483 87.0683 26.6645 87.7007L22.8537 92.4139C21.6744 93.5679 19.815 93.7238 18.4535 92.726ZM25.9939 98.7275C25.3515 98.2718 24.9384 97.5914 24.831 96.8114C24.7248 96.0402 24.9329 95.2827 25.4161 94.674C25.5378 94.5457 25.6568 94.4139 25.77 94.2745L29.0451 90.2392C29.195 90.0545 29.3336 89.8643 29.461 89.6693L31.0372 87.72C31.5117 87.1331 32.1864 86.7667 32.9369 86.688C33.037 86.6775 33.1368 86.6723 33.2358 86.6723C33.8812 86.6723 34.5031 86.8927 35.0224 87.3138C35.6075 87.7887 35.9729 88.4632 36.0509 89.2128C36.1287 89.9623 35.9101 90.6976 35.4351 91.2827L29.8167 98.2043C28.8827 99.3553 27.2032 99.5853 25.9939 98.7275ZM33.413 104.772C32.721 104.266 32.2761 103.498 32.1603 102.61C32.0292 101.606 32.3368 100.557 33.0047 99.73L35.9494 96.0839C36.5978 95.2811 37.5314 94.7618 38.5111 94.6587C38.6321 94.646 38.7527 94.6396 38.8721 94.6396C39.6096 94.6396 40.3078 94.881 40.8731 95.3398C42.3039 96.5011 42.4304 98.7247 41.1547 100.296L40.7097 100.844C40.6099 100.952 40.5123 101.061 40.4192 101.177L38.0871 104.064C36.8362 105.479 34.8159 105.799 33.413 104.772ZM44.1964 110.605C43.281 111.733 41.6454 111.945 40.4729 111.089C39.8646 110.645 39.4759 109.989 39.3781 109.242C39.2802 108.495 39.487 107.761 39.9604 107.175L40.6793 106.285C40.7368 106.219 40.795 106.154 40.8508 106.086L43.2744 103.1C43.7136 102.662 44.2837 102.388 44.9093 102.323C45.0062 102.312 45.1031 102.307 45.1989 102.307C45.822 102.307 46.4225 102.52 46.9207 102.924C47.4858 103.383 47.8386 104.034 47.9139 104.758C47.9892 105.483 47.7779 106.193 47.3192 106.758L44.1964 110.605Z" fill="black"/>
<path d="M72.52 12.0816C72.5054 11.8327 72.4383 11.5898 72.323 11.3687C72.2078 11.1477 72.0471 10.9535 71.8514 10.7991C68.3357 8.00676 63.9742 6.49438 59.4845 6.51075C54.189 6.51672 49.1121 8.623 45.3676 12.3675C41.6231 16.112 39.5168 21.1889 39.5109 26.4844C39.4946 30.9741 41.0069 35.3356 43.7991 38.8514C43.9536 39.047 44.1477 39.2078 44.3687 39.323C44.5897 39.4382 44.8326 39.5054 45.0814 39.52C45.1161 39.522 45.1506 39.523 45.1849 39.523C45.6532 39.523 46.1023 39.337 46.4334 39.0059L72.006 13.4334C72.1822 13.2571 72.3191 13.0455 72.4077 12.8125C72.4963 12.5795 72.5346 12.3304 72.52 12.0816ZM45.4255 35.0199C43.8561 32.4503 43.031 29.4954 43.0421 26.4844C43.0471 22.1251 44.781 17.9458 47.8634 14.8633C50.9459 11.7808 55.1252 10.0469 59.4845 10.042C62.4954 10.0308 65.4503 10.8559 68.0199 12.4253L45.4255 35.0199Z" fill="url(#paint0_linear)"/>
<path d="M73.8853 15.9234L48.9232 40.8855C48.7332 41.0755 48.5891 41.3064 48.5019 41.5605C48.4147 41.8147 48.3866 42.0854 48.4198 42.352C48.453 42.6187 48.5466 42.8742 48.6935 43.0992C48.8404 43.3242 49.0367 43.5127 49.2675 43.6504C53.0854 45.921 57.5513 46.8545 61.959 46.3032C66.3668 45.7519 70.4652 43.7473 73.6062 40.6062C76.7473 37.4651 78.7519 33.3668 79.3032 28.959C79.8545 24.5512 78.921 20.0854 76.6503 16.2675C76.5127 16.0366 76.3242 15.8403 76.0992 15.6934C75.8742 15.5465 75.6186 15.4528 75.3519 15.4196C75.0852 15.3865 74.8145 15.4146 74.5604 15.5019C74.3062 15.5892 74.0753 15.7333 73.8853 15.9234ZM59.4842 42.9267C57.3077 42.9275 55.1526 42.4965 53.1437 41.6588L74.6588 20.1439C75.7013 22.6432 76.1106 25.3612 75.8505 28.0567C75.5904 30.7522 74.6688 33.3418 73.1676 35.5957C71.6664 37.8495 69.6321 39.6979 67.2451 40.9768C64.858 42.2556 62.1922 42.9254 59.4842 42.9267Z" fill="url(#paint1_linear)"/>
<path d="M59.4844 0C54.2463 0 49.1258 1.55328 44.7705 4.46342C40.4151 7.37356 37.0206 11.5099 35.016 16.3492C33.0115 21.1886 32.487 26.5138 33.5089 31.6512C34.5308 36.7887 37.0532 41.5078 40.7571 45.2117C44.461 48.9156 49.1801 51.438 54.3175 52.4599C59.455 53.4818 64.7801 52.9573 69.6195 50.9527C74.4589 48.9482 78.5952 45.5536 81.5053 41.1983C84.4155 36.843 85.9688 31.7225 85.9688 26.4844C85.9608 19.4627 83.1679 12.7309 78.2029 7.76588C73.2378 2.80082 66.506 0.00795604 59.4844 0ZM59.4844 49.4375C54.9447 49.4375 50.5069 48.0913 46.7323 45.5692C42.9577 43.0471 40.0157 39.4623 38.2785 35.2682C36.5412 31.074 36.0866 26.4589 36.9723 22.0064C37.858 17.554 40.044 13.4641 43.2541 10.2541C46.4641 7.04401 50.554 4.85794 55.0065 3.97229C59.4589 3.08664 64.074 3.54119 68.2682 5.27845C72.4623 7.01572 76.0471 9.95768 78.5692 13.7323C81.0913 17.5069 82.4375 21.9447 82.4375 26.4844C82.4306 32.5698 80.0101 38.404 75.7071 42.7071C71.404 47.0101 65.5698 49.4306 59.4844 49.4375Z" fill="url(#paint2_linear)"/>
<defs>
<linearGradient id="paint0_linear" x1="55.8954" y1="6.51033" x2="55.8954" y2="39.0193" gradientUnits="userSpaceOnUse">
<stop stop-color="#193D9F"/>
<stop offset="0.473958" stop-color="#80785B"/>
<stop offset="1" stop-color="#F2B90F"/>
</linearGradient>
<linearGradient id="paint1_linear" x1="63.8177" y1="15.4059" x2="63.8177" y2="45.9839" gradientUnits="userSpaceOnUse">
<stop stop-color="#193D9F"/>
<stop offset="0.473958" stop-color="#80785B"/>
<stop offset="1" stop-color="#F2B90F"/>
</linearGradient>
<linearGradient id="paint2_linear" x1="59.2894" y1="-0.0004614" x2="59.2894" y2="52.1606" gradientUnits="userSpaceOnUse">
<stop stop-color="#193D9F"/>
<stop offset="0.473958" stop-color="#80785B"/>
<stop offset="1" stop-color="#F2B90F"/>
</linearGradient>
</defs>
</svg>
