<svg width="113" height="113" viewBox="0 0 113 113" fill="none" xmlns="http://www.w3.org/2000/svg">
<path d="M104.826 71.5083C105.551 70.4733 105.939 69.24 105.938 67.9766V64.4453C105.936 62.8069 105.284 61.2362 104.125 60.0776C102.967 58.9191 101.396 58.2675 99.7578 58.2656H97.9922C96.3538 58.2675 94.783 58.9191 93.6245 60.0776C92.466 61.2362 91.8143 62.8069 91.8125 64.4453V67.9766C91.811 69.24 92.1991 70.4733 92.9237 71.5083C91.5298 72.205 90.3573 73.2758 89.5374 74.601C88.7175 75.9262 88.2825 77.4534 88.2812 79.0117V82.9844H91.8125V79.0117C91.8139 77.7244 92.326 76.4902 93.2362 75.58C94.1465 74.6697 95.3807 74.1577 96.668 74.1562H101.082C102.369 74.1577 103.604 74.6697 104.514 75.58C105.424 76.4902 105.936 77.7244 105.938 79.0117V82.9844H109.469V79.0117C109.467 77.4534 109.033 75.9262 108.213 74.601C107.393 73.2758 106.22 72.205 104.826 71.5083ZM97.9922 70.625C97.29 70.6242 96.6168 70.3449 96.1203 69.8484C95.6238 69.3519 95.3445 68.6787 95.3438 67.9766V64.4453C95.3445 63.7431 95.6238 63.07 96.1203 62.5735C96.6168 62.0769 97.29 61.7977 97.9922 61.7969H99.7578C100.46 61.7977 101.133 62.0769 101.63 62.5735C102.126 63.07 102.405 63.7431 102.406 64.4453V67.9766C102.405 68.6787 102.126 69.3519 101.63 69.8484C101.133 70.3449 100.46 70.6242 99.7578 70.625H97.9922Z" fill="black"/>
<path d="M104.826 45.0239C105.551 43.9889 105.939 42.7557 105.938 41.4922V37.9609C105.936 36.3225 105.284 34.7518 104.125 33.5933C102.967 32.4347 101.396 31.7831 99.7578 31.7812H97.9922C96.3538 31.7831 94.783 32.4347 93.6245 33.5933C92.466 34.7518 91.8143 36.3225 91.8125 37.9609V41.4922C91.811 42.7557 92.1991 43.9889 92.9237 45.0239C91.5298 45.7206 90.3573 46.7914 89.5374 48.1166C88.7175 49.4418 88.2825 50.969 88.2812 52.5273V56.5H91.8125V52.5273C91.8139 51.24 92.326 50.0059 93.2362 49.0956C94.1465 48.1853 95.3807 47.6733 96.668 47.6719H101.082C102.369 47.6733 103.604 48.1853 104.514 49.0956C105.424 50.0059 105.936 51.24 105.938 52.5273V56.5H109.469V52.5273C109.467 50.969 109.033 49.4418 108.213 48.1166C107.393 46.7914 106.22 45.7206 104.826 45.0239ZM97.9922 44.1406C97.29 44.1398 96.6168 43.8606 96.1203 43.3641C95.6238 42.8675 95.3445 42.1944 95.3438 41.4922V37.9609C95.3445 37.2588 95.6238 36.5856 96.1203 36.0891C96.6168 35.5926 97.29 35.3133 97.9922 35.3125H99.7578C100.46 35.3133 101.133 35.5926 101.63 36.0891C102.126 36.5856 102.405 37.2588 102.406 37.9609V41.4922C102.405 42.1944 102.126 42.8675 101.63 43.3641C101.133 43.8606 100.46 44.1398 99.7578 44.1406H97.9922Z" fill="black"/>
<path d="M21.1875 79.0117V82.9844H24.7188V79.0117C24.7175 77.4534 24.2825 75.9262 23.4626 74.601C22.6427 73.2758 21.4702 72.205 20.0763 71.5083C20.8009 70.4733 21.189 69.24 21.1875 67.9766V64.4453C21.1857 62.8069 20.534 61.2362 19.3755 60.0776C18.217 58.9191 16.6462 58.2675 15.0078 58.2656H13.2422C11.6038 58.2675 10.033 58.9191 8.87451 60.0776C7.716 61.2362 7.06433 62.8069 7.0625 64.4453V67.9766C7.06104 69.24 7.44906 70.4733 8.17372 71.5083C6.77981 72.205 5.6073 73.2758 4.78739 74.601C3.96749 75.9262 3.53255 77.4534 3.53125 79.0117V82.9844H7.0625V79.0117C7.06395 77.7244 7.57597 76.4902 8.48623 75.58C9.3965 74.6697 10.6307 74.1577 11.918 74.1562H16.332C17.6193 74.1577 18.8535 74.6697 19.7638 75.58C20.674 76.4902 21.1861 77.7244 21.1875 79.0117ZM13.2422 70.625C12.54 70.6242 11.8668 70.3449 11.3703 69.8484C10.8738 69.3519 10.5945 68.6787 10.5938 67.9766V64.4453C10.5945 63.7431 10.8738 63.07 11.3703 62.5735C11.8668 62.0769 12.54 61.7977 13.2422 61.7969H15.0078C15.71 61.7977 16.3832 62.0769 16.8797 62.5735C17.3762 63.07 17.6555 63.7431 17.6562 64.4453V67.9766C17.6555 68.6787 17.3762 69.3519 16.8797 69.8484C16.3832 70.3449 15.71 70.6242 15.0078 70.625H13.2422Z" fill="black"/>
<path d="M75.9219 24.2773C75.9233 22.99 76.4353 21.7559 77.3456 20.8456C78.2559 19.9353 79.49 19.4233 80.7773 19.4219H85.1914C86.4787 19.4233 87.7129 19.9353 88.6231 20.8456C89.5334 21.7559 90.0454 22.99 90.0469 24.2773V28.25H93.5781V24.2773C93.5768 22.719 93.1419 21.1918 92.322 19.8666C91.5021 18.5414 90.3296 17.4706 88.9357 16.7739C89.6603 15.7389 90.0483 14.5057 90.0469 13.2422V9.71094C90.045 8.07255 89.3934 6.50178 88.2349 5.34326C87.0763 4.18475 85.5056 3.53308 83.8672 3.53125H82.1016C80.4632 3.53308 78.8924 4.18475 77.7339 5.34326C76.5754 6.50178 75.9237 8.07255 75.9219 9.71094V13.2422C75.9204 14.5057 76.3084 15.7389 77.0331 16.7739C75.6392 17.4706 74.4667 18.5414 73.6468 19.8666C72.8269 21.1918 72.3919 22.719 72.3906 24.2773V28.25H75.9219V24.2773ZM79.4531 9.71094C79.4539 9.00877 79.7332 8.33558 80.2297 7.83907C80.7262 7.34256 81.3994 7.06328 82.1016 7.0625H83.8672C84.5694 7.06328 85.2425 7.34256 85.739 7.83907C86.2356 8.33558 86.5148 9.00877 86.5156 9.71094V13.2422C86.5148 13.9444 86.2356 14.6175 85.739 15.1141C85.2425 15.6106 84.5694 15.8898 83.8672 15.8906H82.1016C81.3994 15.8898 80.7262 15.6106 80.2297 15.1141C79.7332 14.6175 79.4539 13.9444 79.4531 13.2422V9.71094Z" fill="black"/>
<path d="M22.9531 24.2773C22.9546 22.99 23.4666 21.7559 24.3769 20.8456C25.2871 19.9353 26.5213 19.4233 27.8086 19.4219H32.2227C33.51 19.4233 34.7441 19.9353 35.6544 20.8456C36.5647 21.7559 37.0767 22.99 37.0781 24.2773V28.25H40.6094V24.2773C40.6081 22.719 40.1731 21.1918 39.3532 19.8666C38.5333 18.5414 37.3608 17.4706 35.9669 16.7739C36.6916 15.7389 37.0796 14.5057 37.0781 13.2422V9.71094C37.0763 8.07255 36.4246 6.50178 35.2661 5.34326C34.1076 4.18475 32.5368 3.53308 30.8984 3.53125H29.1328C27.4944 3.53308 25.9237 4.18475 24.7651 5.34326C23.6066 6.50178 22.955 8.07255 22.9531 9.71094V13.2422C22.9517 14.5057 23.3397 15.7389 24.0643 16.7739C22.6704 17.4706 21.4979 18.5414 20.678 19.8666C19.8581 21.1918 19.4232 22.719 19.4219 24.2773V28.25H22.9531V24.2773ZM26.4844 9.71094C26.4852 9.00877 26.7644 8.33558 27.2609 7.83907C27.7575 7.34256 28.4306 7.06328 29.1328 7.0625H30.8984C31.6006 7.06328 32.2738 7.34256 32.7703 7.83907C33.2668 8.33558 33.5461 9.00877 33.5469 9.71094V13.2422C33.5461 13.9444 33.2668 14.6175 32.7703 15.1141C32.2738 15.6106 31.6006 15.8898 30.8984 15.8906H29.1328C28.4306 15.8898 27.7575 15.6106 27.2609 15.1141C26.7644 14.6175 26.4852 13.9444 26.4844 13.2422V9.71094Z" fill="black"/>
<path d="M49.4375 24.2773C49.4389 22.99 49.951 21.7559 50.8612 20.8456C51.7715 19.9353 53.0057 19.4233 54.293 19.4219H58.707C59.9943 19.4233 61.2285 19.9353 62.1388 20.8456C63.049 21.7559 63.5611 22.99 63.5625 24.2773V28.25H67.0938V24.2773C67.0925 22.719 66.6575 21.1918 65.8376 19.8666C65.0177 18.5414 63.8452 17.4706 62.4513 16.7739C63.1759 15.7389 63.564 14.5057 63.5625 13.2422V9.71094C63.5607 8.07255 62.909 6.50178 61.7505 5.34326C60.592 4.18475 59.0212 3.53308 57.3828 3.53125H55.6172C53.9788 3.53308 52.408 4.18475 51.2495 5.34326C50.091 6.50178 49.4393 8.07255 49.4375 9.71094V13.2422C49.436 14.5057 49.8241 15.7389 50.5487 16.7739C49.1548 17.4706 47.9823 18.5414 47.1624 19.8666C46.3425 21.1918 45.9075 22.719 45.9062 24.2773V28.25H49.4375V24.2773ZM52.9688 9.71094C52.9695 9.00877 53.2488 8.33558 53.7453 7.83907C54.2418 7.34256 54.915 7.06328 55.6172 7.0625H57.3828C58.085 7.06328 58.7582 7.34256 59.2547 7.83907C59.7512 8.33558 60.0305 9.00877 60.0312 9.71094V13.2422C60.0305 13.9444 59.7512 14.6175 59.2547 15.1141C58.7582 15.6106 58.085 15.8898 57.3828 15.8906H55.6172C54.915 15.8898 54.2418 15.6106 53.7453 15.1141C53.2488 14.6175 52.9695 13.9444 52.9688 13.2422V9.71094Z" fill="black"/>
<path d="M88.9357 97.9926C89.6603 96.9576 90.0483 95.7244 90.0469 94.4609V90.9297C90.045 89.2913 89.3934 87.7205 88.2349 86.562C87.0763 85.4035 85.5056 84.7518 83.8672 84.75H82.1016C80.4632 84.7518 78.8924 85.4035 77.7339 86.562C76.5754 87.7205 75.9237 89.2913 75.9219 90.9297V94.4609C75.9204 95.7244 76.3084 96.9576 77.0331 97.9926C75.6392 98.6893 74.4667 99.7602 73.6468 101.085C72.8269 102.411 72.3919 103.938 72.3906 105.496V109.469H75.9219V105.496C75.9233 104.209 76.4353 102.975 77.3456 102.064C78.2559 101.154 79.49 100.642 80.7773 100.641H85.1914C86.4787 100.642 87.7129 101.154 88.6231 102.064C89.5334 102.975 90.0454 104.209 90.0469 105.496V109.469H93.5781V105.496C93.5768 103.938 93.1419 102.411 92.322 101.085C91.5021 99.7602 90.3296 98.6893 88.9357 97.9926ZM82.1016 97.1094C81.3994 97.1086 80.7262 96.8293 80.2297 96.3328C79.7332 95.8363 79.4539 95.1631 79.4531 94.4609V90.9297C79.4539 90.2275 79.7332 89.5543 80.2297 89.0578C80.7262 88.5613 81.3994 88.282 82.1016 88.2812H83.8672C84.5694 88.282 85.2425 88.5613 85.739 89.0578C86.2356 89.5543 86.5148 90.2275 86.5156 90.9297V94.4609C86.5148 95.1631 86.2356 95.8363 85.739 96.3328C85.2425 96.8293 84.5694 97.1086 83.8672 97.1094H82.1016Z" fill="black"/>
<path d="M35.9669 97.9926C36.6916 96.9576 37.0796 95.7244 37.0781 94.4609V90.9297C37.0763 89.2913 36.4246 87.7205 35.2661 86.562C34.1076 85.4035 32.5368 84.7518 30.8984 84.75H29.1328C27.4944 84.7518 25.9237 85.4035 24.7651 86.562C23.6066 87.7205 22.955 89.2913 22.9531 90.9297V94.4609C22.9517 95.7244 23.3397 96.9576 24.0643 97.9926C22.6704 98.6893 21.4979 99.7602 20.678 101.085C19.8581 102.411 19.4232 103.938 19.4219 105.496V109.469H22.9531V105.496C22.9546 104.209 23.4666 102.975 24.3769 102.064C25.2871 101.154 26.5213 100.642 27.8086 100.641H32.2227C33.51 100.642 34.7441 101.154 35.6544 102.064C36.5647 102.975 37.0767 104.209 37.0781 105.496V109.469H40.6094V105.496C40.6081 103.938 40.1731 102.411 39.3532 101.085C38.5333 99.7602 37.3608 98.6893 35.9669 97.9926ZM29.1328 97.1094C28.4306 97.1086 27.7575 96.8293 27.2609 96.3328C26.7644 95.8363 26.4852 95.1631 26.4844 94.4609V90.9297C26.4852 90.2275 26.7644 89.5543 27.2609 89.0578C27.7575 88.5613 28.4306 88.282 29.1328 88.2812H30.8984C31.6006 88.282 32.2738 88.5613 32.7703 89.0578C33.2668 89.5543 33.5461 90.2275 33.5469 90.9297V94.4609C33.5461 95.1631 33.2668 95.8363 32.7703 96.3328C32.2738 96.8293 31.6006 97.1086 30.8984 97.1094H29.1328Z" fill="black"/>
<path d="M62.4513 97.9926C63.1759 96.9576 63.564 95.7244 63.5625 94.4609V90.9297C63.5607 89.2913 62.909 87.7205 61.7505 86.562C60.592 85.4035 59.0212 84.7518 57.3828 84.75H55.6172C53.9788 84.7518 52.408 85.4035 51.2495 86.562C50.091 87.7205 49.4393 89.2913 49.4375 90.9297V94.4609C49.436 95.7244 49.8241 96.9576 50.5487 97.9926C49.1548 98.6893 47.9823 99.7602 47.1624 101.085C46.3425 102.411 45.9075 103.938 45.9062 105.496V109.469H49.4375V105.496C49.4389 104.209 49.951 102.975 50.8612 102.064C51.7715 101.154 53.0057 100.642 54.293 100.641H58.707C59.9943 100.642 61.2285 101.154 62.1388 102.064C63.049 102.975 63.5611 104.209 63.5625 105.496V109.469H67.0938V105.496C67.0925 103.938 66.6575 102.411 65.8376 101.085C65.0177 99.7602 63.8452 98.6893 62.4513 97.9926ZM55.6172 97.1094C54.915 97.1086 54.2418 96.8293 53.7453 96.3328C53.2488 95.8363 52.9695 95.1631 52.9688 94.4609V90.9297C52.9695 90.2275 53.2488 89.5543 53.7453 89.0578C54.2418 88.5613 54.915 88.282 55.6172 88.2812H57.3828C58.085 88.282 58.7582 88.5613 59.2547 89.0578C59.7512 89.5543 60.0305 90.2275 60.0312 90.9297V94.4609C60.0305 95.1631 59.7512 95.8363 59.2547 96.3328C58.7582 96.8293 58.085 97.1086 57.3828 97.1094H55.6172Z" fill="black"/>
<path d="M7.0625 52.5273C7.06395 51.24 7.57597 50.0059 8.48623 49.0956C9.3965 48.1853 10.6307 47.6733 11.918 47.6719H16.332C17.6193 47.6733 18.8535 48.1853 19.7638 49.0956C20.674 50.0059 21.1861 51.24 21.1875 52.5273V56.5H24.7188V52.5273C24.7175 50.969 24.2825 49.4418 23.4626 48.1166C22.6427 46.7914 21.4702 45.7206 20.0763 45.0239C20.8009 43.9889 21.189 42.7557 21.1875 41.4922V37.9609C21.1857 36.3225 20.534 34.7518 19.3755 33.5933C18.217 32.4347 16.6462 31.7831 15.0078 31.7812H13.2422C11.6038 31.7831 10.033 32.4347 8.87451 33.5933C7.716 34.7518 7.06433 36.3225 7.0625 37.9609V41.4922C7.06104 42.7557 7.44906 43.9889 8.17372 45.0239C6.77981 45.7206 5.6073 46.7914 4.78739 48.1166C3.96749 49.4418 3.53255 50.969 3.53125 52.5273V56.5H7.0625V52.5273ZM10.5938 37.9609C10.5945 37.2588 10.8738 36.5856 11.3703 36.0891C11.8668 35.5926 12.54 35.3133 13.2422 35.3125H15.0078C15.71 35.3133 16.3832 35.5926 16.8797 36.0891C17.3762 36.5856 17.6555 37.2588 17.6562 37.9609V41.4922C17.6555 42.1944 17.3762 42.8675 16.8797 43.3641C16.3832 43.8606 15.71 44.1398 15.0078 44.1406H13.2422C12.54 44.1398 11.8668 43.8606 11.3703 43.3641C10.8738 42.8675 10.5945 42.1944 10.5938 41.4922V37.9609Z" fill="black"/>
<path d="M70.52 42.0816C70.5054 41.8327 70.4383 41.5898 70.323 41.3687C70.2078 41.1477 70.0471 40.9535 69.8514 40.7991C66.3357 38.0068 61.9742 36.4944 57.4845 36.5108C52.189 36.5167 47.1121 38.623 43.3676 42.3675C39.6231 46.112 37.5168 51.1889 37.5109 56.4844C37.4946 60.9741 39.0069 65.3356 41.7991 68.8514C41.9536 69.047 42.1477 69.2078 42.3687 69.323C42.5897 69.4382 42.8326 69.5054 43.0814 69.52C43.1161 69.522 43.1506 69.523 43.1849 69.523C43.6532 69.523 44.1023 69.337 44.4334 69.0059L70.006 43.4334C70.1822 43.2571 70.3191 43.0455 70.4077 42.8125C70.4963 42.5795 70.5346 42.3304 70.52 42.0816ZM43.4255 65.0199C41.8561 62.4503 41.031 59.4954 41.0421 56.4844C41.0471 52.1251 42.781 47.9458 45.8634 44.8633C48.9459 41.7808 53.1252 40.0469 57.4845 40.042C60.4954 40.0308 63.4503 40.8559 66.0199 42.4253L43.4255 65.0199Z" fill="url(#paint0_linear)"/>
<path d="M71.8853 45.9234L46.9232 70.8855C46.7332 71.0755 46.5891 71.3064 46.5019 71.5605C46.4147 71.8147 46.3866 72.0854 46.4198 72.352C46.453 72.6187 46.5466 72.8742 46.6935 73.0992C46.8404 73.3242 47.0367 73.5127 47.2675 73.6504C51.0854 75.921 55.5513 76.8545 59.959 76.3032C64.3668 75.7519 68.4652 73.7473 71.6062 70.6062C74.7473 67.4651 76.7519 63.3668 77.3032 58.959C77.8545 54.5512 76.921 50.0854 74.6503 46.2675C74.5127 46.0366 74.3242 45.8403 74.0992 45.6934C73.8742 45.5465 73.6186 45.4528 73.3519 45.4196C73.0852 45.3865 72.8145 45.4146 72.5604 45.5019C72.3062 45.5892 72.0753 45.7333 71.8853 45.9234ZM57.4842 72.9267C55.3077 72.9275 53.1526 72.4965 51.1437 71.6588L72.6588 50.1439C73.7013 52.6432 74.1106 55.3612 73.8505 58.0567C73.5904 60.7522 72.6688 63.3418 71.1676 65.5957C69.6664 67.8495 67.6321 69.6979 65.2451 70.9768C62.858 72.2556 60.1922 72.9254 57.4842 72.9267Z" fill="url(#paint1_linear)"/>
<path d="M57.4844 30C52.2463 30 47.1258 31.5533 42.7705 34.4634C38.4151 37.3736 35.0206 41.5099 33.016 46.3492C31.0115 51.1886 30.487 56.5138 31.5089 61.6512C32.5308 66.7887 35.0532 71.5078 38.7571 75.2117C42.461 78.9156 47.1801 81.438 52.3175 82.4599C57.455 83.4818 62.7801 82.9573 67.6195 80.9527C72.4589 78.9482 76.5952 75.5536 79.5053 71.1983C82.4155 66.843 83.9688 61.7225 83.9688 56.4844C83.9608 49.4627 81.1679 42.7309 76.2029 37.7659C71.2378 32.8008 64.506 30.008 57.4844 30ZM57.4844 79.4375C52.9447 79.4375 48.5069 78.0913 44.7323 75.5692C40.9577 73.0471 38.0157 69.4623 36.2785 65.2682C34.5412 61.074 34.0866 56.4589 34.9723 52.0064C35.858 47.554 38.044 43.4641 41.2541 40.2541C44.4641 37.044 48.554 34.8579 53.0065 33.9723C57.4589 33.0866 62.074 33.5412 66.2682 35.2785C70.4623 37.0157 74.0471 39.9577 76.5692 43.7323C79.0913 47.5069 80.4375 51.9447 80.4375 56.4844C80.4306 62.5698 78.0101 68.404 73.7071 72.7071C69.404 77.0101 63.5698 79.4306 57.4844 79.4375Z" fill="url(#paint2_linear)"/>
<defs>
<linearGradient id="paint0_linear" x1="53.8954" y1="36.5103" x2="53.8954" y2="69.0193" gradientUnits="userSpaceOnUse">
<stop stop-color="#193D9F"/>
<stop offset="0.473958" stop-color="#80785B"/>
<stop offset="1" stop-color="#F2B90F"/>
</linearGradient>
<linearGradient id="paint1_linear" x1="61.8177" y1="45.4059" x2="61.8177" y2="75.9839" gradientUnits="userSpaceOnUse">
<stop stop-color="#193D9F"/>
<stop offset="0.473958" stop-color="#80785B"/>
<stop offset="1" stop-color="#F2B90F"/>
</linearGradient>
<linearGradient id="paint2_linear" x1="57.2894" y1="29.9995" x2="57.2894" y2="82.1606" gradientUnits="userSpaceOnUse">
<stop stop-color="#193D9F"/>
<stop offset="0.473958" stop-color="#80785B"/>
<stop offset="1" stop-color="#F2B90F"/>
</linearGradient>
</defs>
</svg>
